<svg width="24" height="24" viewBox="0 0 24 24" fill="none" xmlns="http://www.w3.org/2000/svg">
<path d="M15.7814 5.113C14.0914 3.425 12.4814 1.815 11.9994 0C11.5194 1.815 9.90941 3.425 8.22141 5.113C5.68741 7.643 2.81641 10.513 2.81641 14.815C2.81641 17.251 3.784 19.5873 5.50634 21.3098C7.22867 23.0323 9.56466 24 12.0004 24C14.4362 24 16.7721 23.0323 18.4945 21.3098C20.2168 19.5873 21.1844 17.251 21.1844 14.815C21.1844 10.512 18.3134 7.644 15.7794 5.113M6.72141 16.954C6.15841 16.935 4.08141 13.354 7.93641 9.538L10.4864 12.326C10.508 12.3477 10.5249 12.3737 10.5358 12.4023C10.5468 12.4309 10.5517 12.4614 10.5502 12.492C10.5487 12.5226 10.5408 12.5526 10.5271 12.5799C10.5134 12.6073 10.494 12.6315 10.4704 12.651C9.86041 13.276 7.26641 15.878 6.94341 16.777C6.87741 16.963 6.77941 16.957 6.72141 16.954ZM12.0014 21.677C11.1638 21.6765 10.3607 21.3434 9.7686 20.7511C9.17644 20.1588 8.84367 19.3556 8.84341 18.518C8.85556 17.7521 9.1338 17.0142 9.63041 16.431C10.2004 15.735 12.0004 13.776 12.0004 13.776C12.0004 13.776 13.7744 15.764 14.3674 16.425C14.8828 16.9997 15.1652 17.7461 15.1594 18.518C15.1591 19.3556 14.8264 20.1588 14.2342 20.7511C13.6421 21.3434 12.839 21.6765 12.0014 21.677ZM18.0474 16.554C17.9794 16.704 17.8244 16.952 17.6164 16.959C17.2454 16.973 17.2054 16.782 16.9304 16.376C16.3264 15.484 11.0664 9.986 10.0824 8.921C9.21641 7.986 9.96041 7.326 10.3054 6.981C10.7374 6.547 12.0014 5.285 12.0014 5.285C12.0014 5.285 15.7674 8.859 17.3374 11.301C18.9074 13.743 18.3664 15.857 18.0474 16.554Z" fill="black"/>
</svg>
